<svg xmlns="http://www.w3.org/2000/svg" width="2400" height="3600" viewBox="0 0 2400 3600" preserveAspectRatio="xMidYMid meet" style="max-width:100%;height:auto;background:#ffffff">
<rect x="0.0" y="0.0" width="2400.0" height="3600.0" fill="#ffffff" opacity="1.00" />
<text x="1200.0" y="58.0" font-size="43" font-weight="700" fill="#2b2b2b" text-anchor="middle" font-family="Arial, Helvetica, sans-serif">Model Performance Comparison: Base vs Finetuned</text>
<rect x="740.0" y="96.0" width="42.0" height="18.0" fill="#ef7f9a" opacity="0.88" />
<text x="798.0" y="112.0" font-size="22" font-weight="400" fill="#2b2b2b" text-anchor="start" font-family="Arial, Helvetica, sans-serif">Base MG1</text>
<rect x="970.0" y="96.0" width="42.0" height="18.0" fill="#c7aa4b" opacity="0.88" />
<text x="1028.0" y="112.0" font-size="22" font-weight="400" fill="#2b2b2b" text-anchor="start" font-family="Arial, Helvetica, sans-serif">FT MG1</text>
<rect x="1200.0" y="96.0" width="42.0" height="18.0" fill="#6fa8dc" opacity="0.88" />
<text x="1258.0" y="112.0" font-size="22" font-weight="400" fill="#2b2b2b" text-anchor="start" font-family="Arial, Helvetica, sans-serif">Base MG1.5</text>
<rect x="1430.0" y="96.0" width="42.0" height="18.0" fill="#8fbc6a" opacity="0.88" />
<text x="1488.0" y="112.0" font-size="22" font-weight="400" fill="#2b2b2b" text-anchor="start" font-family="Arial, Helvetica, sans-serif">FT MG1.5</text>
<rect x="95.0" y="165.0" width="1060.0" height="757.5" fill="#e9e9f2" opacity="1.00" />
<text x="625.0" y="203.0" font-size="30" font-weight="700" fill="#2b2b2b" text-anchor="middle" font-family="Arial, Helvetica, sans-serif">Classification</text>
<text x="625.0" y="237.0" font-size="23" font-weight="700" fill="#2b2b2b" text-anchor="middle" font-family="Arial, Helvetica, sans-serif">(Primary: Balanced Accuracy)</text>
<line x1="199.0" y1="776.5" x2="1119.0" y2="776.5" stroke="#ffffff" stroke-width="1.0" />
<text x="183.0" y="782.5" font-size="16" font-weight="400" fill="#333333" text-anchor="end" font-family="Arial, Helvetica, sans-serif">0</text>
<line x1="199.0" y1="675.0" x2="1119.0" y2="675.0" stroke="#ffffff" stroke-width="1.0" />
<text x="183.0" y="681.0" font-size="16" font-weight="400" fill="#333333" text-anchor="end" font-family="Arial, Helvetica, sans-serif">0.200</text>
<line x1="199.0" y1="573.5" x2="1119.0" y2="573.5" stroke="#ffffff" stroke-width="1.0" />
<text x="183.0" y="579.5" font-size="16" font-weight="400" fill="#333333" text-anchor="end" font-family="Arial, Helvetica, sans-serif">0.400</text>
<line x1="199.0" y1="472.0" x2="1119.0" y2="472.0" stroke="#ffffff" stroke-width="1.0" />
<text x="183.0" y="478.0" font-size="16" font-weight="400" fill="#333333" text-anchor="end" font-family="Arial, Helvetica, sans-serif">0.600</text>
<line x1="199.0" y1="370.5" x2="1119.0" y2="370.5" stroke="#ffffff" stroke-width="1.0" />
<text x="183.0" y="376.5" font-size="16" font-weight="400" fill="#333333" text-anchor="end" font-family="Arial, Helvetica, sans-serif">0.800</text>
<line x1="199.0" y1="269.0" x2="1119.0" y2="269.0" stroke="#ffffff" stroke-width="1.0" />
<text x="183.0" y="275.0" font-size="16" font-weight="400" fill="#333333" text-anchor="end" font-family="Arial, Helvetica, sans-serif">1.000</text>
<line x1="199.0" y1="269.0" x2="199.0" y2="776.5" stroke="#555555" stroke-width="1.6" />
<line x1="199.0" y1="776.5" x2="1119.0" y2="776.5" stroke="#555555" stroke-width="1.6" />
<text x="130.0" y="522.8" font-size="21" font-weight="400" fill="#2b2b2b" text-anchor="middle" font-family="Arial, Helvetica, sans-serif" transform="rotate(-90.0 130.0 522.8)">Value</text>
<rect x="242.9" y="635.4" width="53.2" height="141.1" fill="#ef7f9a" opacity="0.88" />
<text x="269.5" y="705.9" font-size="17" font-weight="700" fill="#ffffff" text-anchor="middle" font-family="Arial, Helvetica, sans-serif" transform="rotate(-90.0 269.5 705.9)">0.278</text>
<rect x="298.1" y="413.3" width="53.2" height="363.2" fill="#c7aa4b" opacity="0.88" />
<text x="324.7" y="594.9" font-size="17" font-weight="700" fill="#ffffff" text-anchor="middle" font-family="Arial, Helvetica, sans-serif" transform="rotate(-90.0 324.7 594.9)">0.716</text>
<rect x="353.3" y="762.5" width="53.2" height="14.0" fill="#6fa8dc" opacity="0.88" />
<rect x="408.5" y="393.6" width="53.2" height="382.9" fill="#8fbc6a" opacity="0.88" />
<text x="435.1" y="585.0" font-size="17" font-weight="700" fill="#ffffff" text-anchor="middle" font-family="Arial, Helvetica, sans-serif" transform="rotate(-90.0 435.1 585.0)">0.755</text>
<text x="324.7" y="383.3" font-size="16" font-weight="700" fill="#2b2b2b" text-anchor="middle" font-family="Arial, Helvetica, sans-serif">+157%</text>
<text x="435.1" y="363.6" font-size="16" font-weight="700" fill="#2b2b2b" text-anchor="middle" font-family="Arial, Helvetica, sans-serif">+2642%</text>
<text x="352.3" y="830.5" font-size="19" font-weight="400" fill="#2b2b2b" text-anchor="middle" font-family="Arial, Helvetica, sans-serif"><tspan x="352.3" dy="0.0">Accuracy</tspan></text>
<rect x="549.6" y="704.0" width="53.2" height="72.5" fill="#ef7f9a" opacity="0.88" />
<text x="576.2" y="692.0" font-size="15" font-weight="700" fill="#2b2b2b" text-anchor="middle" font-family="Arial, Helvetica, sans-serif">0.143</text>
<rect x="604.8" y="441.5" width="53.2" height="335.0" fill="#c7aa4b" opacity="0.88" />
<text x="631.4" y="609.0" font-size="17" font-weight="700" fill="#ffffff" text-anchor="middle" font-family="Arial, Helvetica, sans-serif" transform="rotate(-90.0 631.4 609.0)">0.660</text>
<rect x="660.0" y="768.7" width="53.2" height="7.8" fill="#6fa8dc" opacity="0.88" />
<rect x="715.2" y="422.6" width="53.2" height="353.9" fill="#8fbc6a" opacity="0.88" />
<text x="741.8" y="599.5" font-size="17" font-weight="700" fill="#ffffff" text-anchor="middle" font-family="Arial, Helvetica, sans-serif" transform="rotate(-90.0 741.8 599.5)">0.697</text>
<text x="631.4" y="411.5" font-size="16" font-weight="700" fill="#2b2b2b" text-anchor="middle" font-family="Arial, Helvetica, sans-serif">+362%</text>
<text x="741.8" y="392.6" font-size="16" font-weight="700" fill="#2b2b2b" text-anchor="middle" font-family="Arial, Helvetica, sans-serif">+4443%</text>
<text x="659.0" y="830.5" font-size="19" font-weight="400" fill="#2b2b2b" text-anchor="middle" font-family="Arial, Helvetica, sans-serif"><tspan x="659.0" dy="0.0">Balanced</tspan><tspan x="659.0" dy="23.0">Accuracy</tspan></text>
<rect x="856.3" y="638.1" width="53.2" height="138.4" fill="#ef7f9a" opacity="0.88" />
<text x="882.9" y="707.3" font-size="17" font-weight="700" fill="#ffffff" text-anchor="middle" font-family="Arial, Helvetica, sans-serif" transform="rotate(-90.0 882.9 707.3)">0.273</text>
<rect x="911.5" y="416.1" width="53.2" height="360.4" fill="#c7aa4b" opacity="0.88" />
<text x="938.1" y="596.3" font-size="17" font-weight="700" fill="#ffffff" text-anchor="middle" font-family="Arial, Helvetica, sans-serif" transform="rotate(-90.0 938.1 596.3)">0.710</text>
<rect x="966.7" y="760.4" width="53.2" height="16.1" fill="#6fa8dc" opacity="0.88" />
<rect x="1021.9" y="396.5" width="53.2" height="380.0" fill="#8fbc6a" opacity="0.88" />
<text x="1048.5" y="586.5" font-size="17" font-weight="700" fill="#ffffff" text-anchor="middle" font-family="Arial, Helvetica, sans-serif" transform="rotate(-90.0 1048.5 586.5)">0.749</text>
<text x="938.1" y="386.1" font-size="16" font-weight="700" fill="#2b2b2b" text-anchor="middle" font-family="Arial, Helvetica, sans-serif">+160%</text>
<text x="1048.5" y="366.5" font-size="16" font-weight="700" fill="#2b2b2b" text-anchor="middle" font-family="Arial, Helvetica, sans-serif">+2266%</text>
<text x="965.7" y="830.5" font-size="19" font-weight="400" fill="#2b2b2b" text-anchor="middle" font-family="Arial, Helvetica, sans-serif"><tspan x="965.7" dy="0.0">F1 Score</tspan></text>
<rect x="1245.0" y="165.0" width="1060.0" height="757.5" fill="#e9e9f2" opacity="1.00" />
<text x="1775.0" y="203.0" font-size="30" font-weight="700" fill="#2b2b2b" text-anchor="middle" font-family="Arial, Helvetica, sans-serif">Detection</text>
<text x="1775.0" y="237.0" font-size="23" font-weight="700" fill="#2b2b2b" text-anchor="middle" font-family="Arial, Helvetica, sans-serif">(Primary: F1 Score)</text>
<line x1="1349.0" y1="776.5" x2="2269.0" y2="776.5" stroke="#ffffff" stroke-width="1.0" />
<text x="1333.0" y="782.5" font-size="16" font-weight="400" fill="#333333" text-anchor="end" font-family="Arial, Helvetica, sans-serif">0</text>
<line x1="1349.0" y1="649.6" x2="2269.0" y2="649.6" stroke="#ffffff" stroke-width="1.0" />
<text x="1333.0" y="655.6" font-size="16" font-weight="400" fill="#333333" text-anchor="end" font-family="Arial, Helvetica, sans-serif">0.050</text>
<line x1="1349.0" y1="522.8" x2="2269.0" y2="522.8" stroke="#ffffff" stroke-width="1.0" />
<text x="1333.0" y="528.8" font-size="16" font-weight="400" fill="#333333" text-anchor="end" font-family="Arial, Helvetica, sans-serif">0.100</text>
<line x1="1349.0" y1="395.9" x2="2269.0" y2="395.9" stroke="#ffffff" stroke-width="1.0" />
<text x="1333.0" y="401.9" font-size="16" font-weight="400" fill="#333333" text-anchor="end" font-family="Arial, Helvetica, sans-serif">0.150</text>
<line x1="1349.0" y1="269.0" x2="2269.0" y2="269.0" stroke="#ffffff" stroke-width="1.0" />
<text x="1333.0" y="275.0" font-size="16" font-weight="400" fill="#333333" text-anchor="end" font-family="Arial, Helvetica, sans-serif">0.200</text>
<line x1="1349.0" y1="269.0" x2="1349.0" y2="776.5" stroke="#555555" stroke-width="1.6" />
<line x1="1349.0" y1="776.5" x2="2269.0" y2="776.5" stroke="#555555" stroke-width="1.6" />
<text x="1280.0" y="522.8" font-size="21" font-weight="400" fill="#2b2b2b" text-anchor="middle" font-family="Arial, Helvetica, sans-serif" transform="rotate(-90.0 1280.0 522.8)">Value</text>
<rect x="1392.9" y="761.1" width="53.2" height="15.4" fill="#ef7f9a" opacity="0.88" />
<rect x="1448.1" y="465.9" width="53.2" height="310.6" fill="#c7aa4b" opacity="0.88" />
<text x="1474.7" y="621.2" font-size="17" font-weight="700" fill="#ffffff" text-anchor="middle" font-family="Arial, Helvetica, sans-serif" transform="rotate(-90.0 1474.7 621.2)">0.122</text>
<rect x="1503.3" y="774.6" width="53.2" height="1.9" fill="#6fa8dc" opacity="0.88" />
<rect x="1558.5" y="443.7" width="53.2" height="332.8" fill="#8fbc6a" opacity="0.88" />
<text x="1585.1" y="610.1" font-size="17" font-weight="700" fill="#ffffff" text-anchor="middle" font-family="Arial, Helvetica, sans-serif" transform="rotate(-90.0 1585.1 610.1)">0.131</text>
<text x="1474.7" y="435.9" font-size="16" font-weight="700" fill="#2b2b2b" text-anchor="middle" font-family="Arial, Helvetica, sans-serif">+1919%</text>
<text x="1585.1" y="413.7" font-size="16" font-weight="700" fill="#2b2b2b" text-anchor="middle" font-family="Arial, Helvetica, sans-serif">+17349%</text>
<text x="1502.3" y="830.5" font-size="19" font-weight="400" fill="#2b2b2b" text-anchor="middle" font-family="Arial, Helvetica, sans-serif"><tspan x="1502.3" dy="0.0">Precision</tspan></text>
<rect x="1699.6" y="765.8" width="53.2" height="10.7" fill="#ef7f9a" opacity="0.88" />
<rect x="1754.8" y="594.7" width="53.2" height="181.8" fill="#c7aa4b" opacity="0.88" />
<text x="1781.4" y="685.6" font-size="17" font-weight="700" fill="#ffffff" text-anchor="middle" font-family="Arial, Helvetica, sans-serif" transform="rotate(-90.0 1781.4 685.6)">0.072</text>
<rect x="1810.0" y="771.8" width="53.2" height="4.7" fill="#6fa8dc" opacity="0.88" />
<rect x="1865.2" y="572.1" width="53.2" height="204.4" fill="#8fbc6a" opacity="0.88" />
<text x="1891.8" y="674.3" font-size="17" font-weight="700" fill="#ffffff" text-anchor="middle" font-family="Arial, Helvetica, sans-serif" transform="rotate(-90.0 1891.8 674.3)">0.081</text>
<text x="1781.4" y="564.7" font-size="16" font-weight="700" fill="#2b2b2b" text-anchor="middle" font-family="Arial, Helvetica, sans-serif">+1601%</text>
<text x="1891.8" y="542.1" font-size="16" font-weight="700" fill="#2b2b2b" text-anchor="middle" font-family="Arial, Helvetica, sans-serif">+4222%</text>
<text x="1809.0" y="830.5" font-size="19" font-weight="400" fill="#2b2b2b" text-anchor="middle" font-family="Arial, Helvetica, sans-serif"><tspan x="1809.0" dy="0.0">Recall</tspan></text>
<rect x="2006.3" y="765.9" width="53.2" height="10.6" fill="#ef7f9a" opacity="0.88" />
<rect x="2061.5" y="564.8" width="53.2" height="211.7" fill="#c7aa4b" opacity="0.88" />
<text x="2088.1" y="670.7" font-size="17" font-weight="700" fill="#ffffff" text-anchor="middle" font-family="Arial, Helvetica, sans-serif" transform="rotate(-90.0 2088.1 670.7)">0.083</text>
<rect x="2116.7" y="774.7" width="53.2" height="1.8" fill="#6fa8dc" opacity="0.88" />
<rect x="2171.9" y="542.5" width="53.2" height="234.0" fill="#8fbc6a" opacity="0.88" />
<text x="2198.5" y="659.5" font-size="17" font-weight="700" fill="#ffffff" text-anchor="middle" font-family="Arial, Helvetica, sans-serif" transform="rotate(-90.0 2198.5 659.5)">0.092</text>
<text x="2088.1" y="534.8" font-size="16" font-weight="700" fill="#2b2b2b" text-anchor="middle" font-family="Arial, Helvetica, sans-serif">+1892%</text>
<text x="2198.5" y="512.5" font-size="16" font-weight="700" fill="#2b2b2b" text-anchor="middle" font-family="Arial, Helvetica, sans-serif">+12560%</text>
<text x="2115.7" y="830.5" font-size="19" font-weight="400" fill="#2b2b2b" text-anchor="middle" font-family="Arial, Helvetica, sans-serif"><tspan x="2115.7" dy="0.0">F1 Score</tspan></text>
<rect x="95.0" y="1027.5" width="1060.0" height="757.5" fill="#e9e9f2" opacity="1.00" />
<text x="625.0" y="1065.5" font-size="30" font-weight="700" fill="#2b2b2b" text-anchor="middle" font-family="Arial, Helvetica, sans-serif">Regression</text>
<text x="625.0" y="1099.5" font-size="23" font-weight="700" fill="#2b2b2b" text-anchor="middle" font-family="Arial, Helvetica, sans-serif">(Primary: Mean Absolute Error)</text>
<line x1="199.0" y1="1639.0" x2="1119.0" y2="1639.0" stroke="#ffffff" stroke-width="1.0" />
<text x="183.0" y="1645.0" font-size="16" font-weight="400" fill="#333333" text-anchor="end" font-family="Arial, Helvetica, sans-serif">0</text>
<line x1="199.0" y1="1537.5" x2="1119.0" y2="1537.5" stroke="#ffffff" stroke-width="1.0" />
<text x="183.0" y="1543.5" font-size="16" font-weight="400" fill="#333333" text-anchor="end" font-family="Arial, Helvetica, sans-serif">10.000</text>
<line x1="199.0" y1="1436.0" x2="1119.0" y2="1436.0" stroke="#ffffff" stroke-width="1.0" />
<text x="183.0" y="1442.0" font-size="16" font-weight="400" fill="#333333" text-anchor="end" font-family="Arial, Helvetica, sans-serif">20.000</text>
<line x1="199.0" y1="1334.5" x2="1119.0" y2="1334.5" stroke="#ffffff" stroke-width="1.0" />
<text x="183.0" y="1340.5" font-size="16" font-weight="400" fill="#333333" text-anchor="end" font-family="Arial, Helvetica, sans-serif">30.000</text>
<line x1="199.0" y1="1233.0" x2="1119.0" y2="1233.0" stroke="#ffffff" stroke-width="1.0" />
<text x="183.0" y="1239.0" font-size="16" font-weight="400" fill="#333333" text-anchor="end" font-family="Arial, Helvetica, sans-serif">40.000</text>
<line x1="199.0" y1="1131.5" x2="1119.0" y2="1131.5" stroke="#ffffff" stroke-width="1.0" />
<text x="183.0" y="1137.5" font-size="16" font-weight="400" fill="#333333" text-anchor="end" font-family="Arial, Helvetica, sans-serif">50.000</text>
<line x1="199.0" y1="1131.5" x2="199.0" y2="1639.0" stroke="#555555" stroke-width="1.6" />
<line x1="199.0" y1="1639.0" x2="1119.0" y2="1639.0" stroke="#555555" stroke-width="1.6" />
<text x="130.0" y="1385.2" font-size="21" font-weight="400" fill="#2b2b2b" text-anchor="middle" font-family="Arial, Helvetica, sans-serif" transform="rotate(-90.0 130.0 1385.2)">Value</text>
<rect x="264.4" y="1381.0" width="80.8" height="258.0" fill="#ef7f9a" opacity="0.88" />
<text x="304.8" y="1510.0" font-size="17" font-weight="700" fill="#ffffff" text-anchor="middle" font-family="Arial, Helvetica, sans-serif" transform="rotate(-90.0 304.8 1510.0)">25.416</text>
<rect x="347.2" y="1456.3" width="80.8" height="182.7" fill="#c7aa4b" opacity="0.88" />
<text x="387.6" y="1547.6" font-size="17" font-weight="700" fill="#ffffff" text-anchor="middle" font-family="Arial, Helvetica, sans-serif" transform="rotate(-90.0 387.6 1547.6)">18.005</text>
<rect x="430.0" y="1352.7" width="80.8" height="286.3" fill="#6fa8dc" opacity="0.88" />
<text x="470.4" y="1495.8" font-size="17" font-weight="700" fill="#ffffff" text-anchor="middle" font-family="Arial, Helvetica, sans-serif" transform="rotate(-90.0 470.4 1495.8)">28.208</text>
<rect x="512.8" y="1456.2" width="80.8" height="182.8" fill="#8fbc6a" opacity="0.88" />
<text x="553.2" y="1547.6" font-size="17" font-weight="700" fill="#ffffff" text-anchor="middle" font-family="Arial, Helvetica, sans-serif" transform="rotate(-90.0 553.2 1547.6)">18.009</text>
<text x="387.6" y="1426.3" font-size="16" font-weight="700" fill="#2b2b2b" text-anchor="middle" font-family="Arial, Helvetica, sans-serif">+29%</text>
<text x="553.2" y="1426.2" font-size="16" font-weight="700" fill="#2b2b2b" text-anchor="middle" font-family="Arial, Helvetica, sans-serif">+36%</text>
<text x="429.0" y="1693.0" font-size="19" font-weight="400" fill="#2b2b2b" text-anchor="middle" font-family="Arial, Helvetica, sans-serif"><tspan x="429.0" dy="0.0">Mean Absolute</tspan><tspan x="429.0" dy="23.0">Error</tspan></text>
<rect x="724.4" y="1244.8" width="80.8" height="394.2" fill="#ef7f9a" opacity="0.88" />
<text x="764.8" y="1441.9" font-size="17" font-weight="700" fill="#ffffff" text-anchor="middle" font-family="Arial, Helvetica, sans-serif" transform="rotate(-90.0 764.8 1441.9)">38.835</text>
<rect x="807.2" y="1352.9" width="80.8" height="286.1" fill="#c7aa4b" opacity="0.88" />
<text x="847.6" y="1496.0" font-size="17" font-weight="700" fill="#ffffff" text-anchor="middle" font-family="Arial, Helvetica, sans-serif" transform="rotate(-90.0 847.6 1496.0)">28.186</text>
<rect x="890.0" y="1229.7" width="80.8" height="409.3" fill="#6fa8dc" opacity="0.88" />
<text x="930.4" y="1434.4" font-size="17" font-weight="700" fill="#ffffff" text-anchor="middle" font-family="Arial, Helvetica, sans-serif" transform="rotate(-90.0 930.4 1434.4)">40.321</text>
<rect x="972.8" y="1353.9" width="80.8" height="285.1" fill="#8fbc6a" opacity="0.88" />
<text x="1013.2" y="1496.4" font-size="17" font-weight="700" fill="#ffffff" text-anchor="middle" font-family="Arial, Helvetica, sans-serif" transform="rotate(-90.0 1013.2 1496.4)">28.093</text>
<text x="847.6" y="1322.9" font-size="16" font-weight="700" fill="#2b2b2b" text-anchor="middle" font-family="Arial, Helvetica, sans-serif">+27%</text>
<text x="1013.2" y="1323.9" font-size="16" font-weight="700" fill="#2b2b2b" text-anchor="middle" font-family="Arial, Helvetica, sans-serif">+30%</text>
<text x="889.0" y="1693.0" font-size="19" font-weight="400" fill="#2b2b2b" text-anchor="middle" font-family="Arial, Helvetica, sans-serif"><tspan x="889.0" dy="0.0">Root Mean</tspan><tspan x="889.0" dy="23.0">Squared Error</tspan></text>
<rect x="1245.0" y="1027.5" width="1060.0" height="757.5" fill="#e9e9f2" opacity="1.00" />
<text x="1775.0" y="1065.5" font-size="30" font-weight="700" fill="#2b2b2b" text-anchor="middle" font-family="Arial, Helvetica, sans-serif">Multi Label</text>
<text x="1775.0" y="1099.5" font-size="23" font-weight="700" fill="#2b2b2b" text-anchor="middle" font-family="Arial, Helvetica, sans-serif">(Primary: F1 Score)</text>
<line x1="1349.0" y1="1639.0" x2="2269.0" y2="1639.0" stroke="#ffffff" stroke-width="1.0" />
<text x="1333.0" y="1645.0" font-size="16" font-weight="400" fill="#333333" text-anchor="end" font-family="Arial, Helvetica, sans-serif">0</text>
<line x1="1349.0" y1="1512.1" x2="2269.0" y2="1512.1" stroke="#ffffff" stroke-width="1.0" />
<text x="1333.0" y="1518.1" font-size="16" font-weight="400" fill="#333333" text-anchor="end" font-family="Arial, Helvetica, sans-serif">0.200</text>
<line x1="1349.0" y1="1385.2" x2="2269.0" y2="1385.2" stroke="#ffffff" stroke-width="1.0" />
<text x="1333.0" y="1391.2" font-size="16" font-weight="400" fill="#333333" text-anchor="end" font-family="Arial, Helvetica, sans-serif">0.400</text>
<line x1="1349.0" y1="1258.4" x2="2269.0" y2="1258.4" stroke="#ffffff" stroke-width="1.0" />
<text x="1333.0" y="1264.4" font-size="16" font-weight="400" fill="#333333" text-anchor="end" font-family="Arial, Helvetica, sans-serif">0.600</text>
<line x1="1349.0" y1="1131.5" x2="2269.0" y2="1131.5" stroke="#ffffff" stroke-width="1.0" />
<text x="1333.0" y="1137.5" font-size="16" font-weight="400" fill="#333333" text-anchor="end" font-family="Arial, Helvetica, sans-serif">0.800</text>
<line x1="1349.0" y1="1131.5" x2="1349.0" y2="1639.0" stroke="#555555" stroke-width="1.6" />
<line x1="1349.0" y1="1639.0" x2="2269.0" y2="1639.0" stroke="#555555" stroke-width="1.6" />
<text x="1280.0" y="1385.2" font-size="21" font-weight="400" fill="#2b2b2b" text-anchor="middle" font-family="Arial, Helvetica, sans-serif" transform="rotate(-90.0 1280.0 1385.2)">Value</text>
<rect x="1392.9" y="1451.9" width="53.2" height="187.1" fill="#ef7f9a" opacity="0.88" />
<text x="1419.5" y="1545.4" font-size="17" font-weight="700" fill="#ffffff" text-anchor="middle" font-family="Arial, Helvetica, sans-serif" transform="rotate(-90.0 1419.5 1545.4)">0.295</text>
<rect x="1448.1" y="1318.6" width="53.2" height="320.4" fill="#c7aa4b" opacity="0.88" />
<text x="1474.7" y="1478.8" font-size="17" font-weight="700" fill="#ffffff" text-anchor="middle" font-family="Arial, Helvetica, sans-serif" transform="rotate(-90.0 1474.7 1478.8)">0.505</text>
<rect x="1503.3" y="1573.8" width="53.2" height="65.2" fill="#6fa8dc" opacity="0.88" />
<text x="1529.9" y="1561.8" font-size="15" font-weight="700" fill="#2b2b2b" text-anchor="middle" font-family="Arial, Helvetica, sans-serif">0.103</text>
<rect x="1558.5" y="1309.4" width="53.2" height="329.6" fill="#8fbc6a" opacity="0.88" />
<text x="1585.1" y="1474.2" font-size="17" font-weight="700" fill="#ffffff" text-anchor="middle" font-family="Arial, Helvetica, sans-serif" transform="rotate(-90.0 1585.1 1474.2)">0.520</text>
<text x="1474.7" y="1288.6" font-size="16" font-weight="700" fill="#2b2b2b" text-anchor="middle" font-family="Arial, Helvetica, sans-serif">+71%</text>
<text x="1585.1" y="1279.4" font-size="16" font-weight="700" fill="#2b2b2b" text-anchor="middle" font-family="Arial, Helvetica, sans-serif">+405%</text>
<text x="1502.3" y="1693.0" font-size="19" font-weight="400" fill="#2b2b2b" text-anchor="middle" font-family="Arial, Helvetica, sans-serif"><tspan x="1502.3" dy="0.0">Precision</tspan></text>
<rect x="1699.6" y="1413.7" width="53.2" height="225.3" fill="#ef7f9a" opacity="0.88" />
<text x="1726.2" y="1526.3" font-size="17" font-weight="700" fill="#ffffff" text-anchor="middle" font-family="Arial, Helvetica, sans-serif" transform="rotate(-90.0 1726.2 1526.3)">0.355</text>
<rect x="1754.8" y="1315.6" width="53.2" height="323.4" fill="#c7aa4b" opacity="0.88" />
<text x="1781.4" y="1477.3" font-size="17" font-weight="700" fill="#ffffff" text-anchor="middle" font-family="Arial, Helvetica, sans-serif" transform="rotate(-90.0 1781.4 1477.3)">0.510</text>
<rect x="1810.0" y="1333.0" width="53.2" height="306.0" fill="#6fa8dc" opacity="0.88" />
<text x="1836.6" y="1486.0" font-size="17" font-weight="700" fill="#ffffff" text-anchor="middle" font-family="Arial, Helvetica, sans-serif" transform="rotate(-90.0 1836.6 1486.0)">0.482</text>
<rect x="1865.2" y="1314.9" width="53.2" height="324.1" fill="#8fbc6a" opacity="0.88" />
<text x="1891.8" y="1477.0" font-size="17" font-weight="700" fill="#ffffff" text-anchor="middle" font-family="Arial, Helvetica, sans-serif" transform="rotate(-90.0 1891.8 1477.0)">0.511</text>
<text x="1781.4" y="1285.6" font-size="16" font-weight="700" fill="#2b2b2b" text-anchor="middle" font-family="Arial, Helvetica, sans-serif">+44%</text>
<text x="1891.8" y="1284.9" font-size="16" font-weight="700" fill="#2b2b2b" text-anchor="middle" font-family="Arial, Helvetica, sans-serif">+6%</text>
<text x="1809.0" y="1693.0" font-size="19" font-weight="400" fill="#2b2b2b" text-anchor="middle" font-family="Arial, Helvetica, sans-serif"><tspan x="1809.0" dy="0.0">Recall</tspan></text>
<rect x="2006.3" y="1458.3" width="53.2" height="180.7" fill="#ef7f9a" opacity="0.88" />
<text x="2032.9" y="1548.6" font-size="17" font-weight="700" fill="#ffffff" text-anchor="middle" font-family="Arial, Helvetica, sans-serif" transform="rotate(-90.0 2032.9 1548.6)">0.285</text>
<rect x="2061.5" y="1326.3" width="53.2" height="312.7" fill="#c7aa4b" opacity="0.88" />
<text x="2088.1" y="1482.7" font-size="17" font-weight="700" fill="#ffffff" text-anchor="middle" font-family="Arial, Helvetica, sans-serif" transform="rotate(-90.0 2088.1 1482.7)">0.493</text>
<rect x="2116.7" y="1541.3" width="53.2" height="97.7" fill="#6fa8dc" opacity="0.88" />
<text x="2143.3" y="1590.1" font-size="17" font-weight="700" fill="#ffffff" text-anchor="middle" font-family="Arial, Helvetica, sans-serif" transform="rotate(-90.0 2143.3 1590.1)">0.154</text>
<rect x="2171.9" y="1322.6" width="53.2" height="316.4" fill="#8fbc6a" opacity="0.88" />
<text x="2198.5" y="1480.8" font-size="17" font-weight="700" fill="#ffffff" text-anchor="middle" font-family="Arial, Helvetica, sans-serif" transform="rotate(-90.0 2198.5 1480.8)">0.499</text>
<text x="2088.1" y="1296.3" font-size="16" font-weight="700" fill="#2b2b2b" text-anchor="middle" font-family="Arial, Helvetica, sans-serif">+73%</text>
<text x="2198.5" y="1292.6" font-size="16" font-weight="700" fill="#2b2b2b" text-anchor="middle" font-family="Arial, Helvetica, sans-serif">+224%</text>
<text x="2115.7" y="1693.0" font-size="19" font-weight="400" fill="#2b2b2b" text-anchor="middle" font-family="Arial, Helvetica, sans-serif"><tspan x="2115.7" dy="0.0">F1 Score</tspan></text>
<rect x="95.0" y="1890.0" width="1060.0" height="757.5" fill="#e9e9f2" opacity="1.00" />
<text x="625.0" y="1928.0" font-size="30" font-weight="700" fill="#2b2b2b" text-anchor="middle" font-family="Arial, Helvetica, sans-serif">Report Generation</text>
<text x="625.0" y="1962.0" font-size="23" font-weight="700" fill="#2b2b2b" text-anchor="middle" font-family="Arial, Helvetica, sans-serif">(Primary: GREEN Score)</text>
<line x1="199.0" y1="2501.5" x2="1119.0" y2="2501.5" stroke="#ffffff" stroke-width="1.0" />
<text x="183.0" y="2507.5" font-size="16" font-weight="400" fill="#333333" text-anchor="end" font-family="Arial, Helvetica, sans-serif">0</text>
<line x1="199.0" y1="2400.0" x2="1119.0" y2="2400.0" stroke="#ffffff" stroke-width="1.0" />
<text x="183.0" y="2406.0" font-size="16" font-weight="400" fill="#333333" text-anchor="end" font-family="Arial, Helvetica, sans-serif">0.200</text>
<line x1="199.0" y1="2298.5" x2="1119.0" y2="2298.5" stroke="#ffffff" stroke-width="1.0" />
<text x="183.0" y="2304.5" font-size="16" font-weight="400" fill="#333333" text-anchor="end" font-family="Arial, Helvetica, sans-serif">0.400</text>
<line x1="199.0" y1="2197.0" x2="1119.0" y2="2197.0" stroke="#ffffff" stroke-width="1.0" />
<text x="183.0" y="2203.0" font-size="16" font-weight="400" fill="#333333" text-anchor="end" font-family="Arial, Helvetica, sans-serif">0.600</text>
<line x1="199.0" y1="2095.5" x2="1119.0" y2="2095.5" stroke="#ffffff" stroke-width="1.0" />
<text x="183.0" y="2101.5" font-size="16" font-weight="400" fill="#333333" text-anchor="end" font-family="Arial, Helvetica, sans-serif">0.800</text>
<line x1="199.0" y1="1994.0" x2="1119.0" y2="1994.0" stroke="#ffffff" stroke-width="1.0" />
<text x="183.0" y="2000.0" font-size="16" font-weight="400" fill="#333333" text-anchor="end" font-family="Arial, Helvetica, sans-serif">1.000</text>
<line x1="199.0" y1="1994.0" x2="199.0" y2="2501.5" stroke="#555555" stroke-width="1.6" />
<line x1="199.0" y1="2501.5" x2="1119.0" y2="2501.5" stroke="#555555" stroke-width="1.6" />
<text x="130.0" y="2247.8" font-size="21" font-weight="400" fill="#2b2b2b" text-anchor="middle" font-family="Arial, Helvetica, sans-serif" transform="rotate(-90.0 130.0 2247.8)">Value</text>
<rect x="328.8" y="2097.4" width="163.6" height="404.1" fill="#ef7f9a" opacity="0.88" />
<text x="410.6" y="2299.4" font-size="17" font-weight="700" fill="#ffffff" text-anchor="middle" font-family="Arial, Helvetica, sans-serif" transform="rotate(-90.0 410.6 2299.4)">0.796</text>
<rect x="494.4" y="2132.3" width="163.6" height="369.2" fill="#c7aa4b" opacity="0.88" />
<text x="576.2" y="2316.9" font-size="17" font-weight="700" fill="#ffffff" text-anchor="middle" font-family="Arial, Helvetica, sans-serif" transform="rotate(-90.0 576.2 2316.9)">0.728</text>
<rect x="660.0" y="2109.8" width="163.6" height="391.7" fill="#6fa8dc" opacity="0.88" />
<text x="741.8" y="2305.6" font-size="17" font-weight="700" fill="#ffffff" text-anchor="middle" font-family="Arial, Helvetica, sans-serif" transform="rotate(-90.0 741.8 2305.6)">0.772</text>
<rect x="825.6" y="2130.8" width="163.6" height="370.7" fill="#8fbc6a" opacity="0.88" />
<text x="907.4" y="2316.1" font-size="17" font-weight="700" fill="#ffffff" text-anchor="middle" font-family="Arial, Helvetica, sans-serif" transform="rotate(-90.0 907.4 2316.1)">0.730</text>
<text x="576.2" y="2102.3" font-size="16" font-weight="700" fill="#2b2b2b" text-anchor="middle" font-family="Arial, Helvetica, sans-serif">-9%</text>
<text x="907.4" y="2100.8" font-size="16" font-weight="700" fill="#2b2b2b" text-anchor="middle" font-family="Arial, Helvetica, sans-serif">-5%</text>
<text x="659.0" y="2555.5" font-size="19" font-weight="400" fill="#2b2b2b" text-anchor="middle" font-family="Arial, Helvetica, sans-serif"><tspan x="659.0" dy="0.0">GREEN</tspan><tspan x="659.0" dy="23.0">Score</tspan></text>
<rect x="1245.0" y="1890.0" width="1060.0" height="757.5" fill="#e9e9f2" opacity="1.00" />
<text x="1775.0" y="1928.0" font-size="30" font-weight="700" fill="#2b2b2b" text-anchor="middle" font-family="Arial, Helvetica, sans-serif">CRIMSON</text>
<text x="1775.0" y="1962.0" font-size="23" font-weight="700" fill="#2b2b2b" text-anchor="middle" font-family="Arial, Helvetica, sans-serif">(Primary: CRIMSON Score)</text>
<line x1="1349.0" y1="2501.5" x2="2269.0" y2="2501.5" stroke="#ffffff" stroke-width="1.0" />
<text x="1333.0" y="2507.5" font-size="16" font-weight="400" fill="#333333" text-anchor="end" font-family="Arial, Helvetica, sans-serif">0</text>
<line x1="1349.0" y1="2332.3" x2="2269.0" y2="2332.3" stroke="#ffffff" stroke-width="1.0" />
<text x="1333.0" y="2338.3" font-size="16" font-weight="400" fill="#333333" text-anchor="end" font-family="Arial, Helvetica, sans-serif">0.500</text>
<line x1="1349.0" y1="2163.2" x2="2269.0" y2="2163.2" stroke="#ffffff" stroke-width="1.0" />
<text x="1333.0" y="2169.2" font-size="16" font-weight="400" fill="#333333" text-anchor="end" font-family="Arial, Helvetica, sans-serif">1.000</text>
<line x1="1349.0" y1="1994.0" x2="2269.0" y2="1994.0" stroke="#ffffff" stroke-width="1.0" />
<text x="1333.0" y="2000.0" font-size="16" font-weight="400" fill="#333333" text-anchor="end" font-family="Arial, Helvetica, sans-serif">1.500</text>
<line x1="1349.0" y1="1994.0" x2="1349.0" y2="2501.5" stroke="#555555" stroke-width="1.6" />
<line x1="1349.0" y1="2501.5" x2="2269.0" y2="2501.5" stroke="#555555" stroke-width="1.6" />
<text x="1280.0" y="2247.8" font-size="21" font-weight="400" fill="#2b2b2b" text-anchor="middle" font-family="Arial, Helvetica, sans-serif" transform="rotate(-90.0 1280.0 2247.8)">Value</text>
<rect x="1478.8" y="2240.9" width="163.6" height="260.6" fill="#ef7f9a" opacity="0.88" />
<text x="1560.6" y="2371.2" font-size="17" font-weight="700" fill="#ffffff" text-anchor="middle" font-family="Arial, Helvetica, sans-serif" transform="rotate(-90.0 1560.6 2371.2)">0.770</text>
<rect x="1644.4" y="2208.7" width="163.6" height="292.8" fill="#c7aa4b" opacity="0.88" />
<text x="1726.2" y="2355.1" font-size="17" font-weight="700" fill="#ffffff" text-anchor="middle" font-family="Arial, Helvetica, sans-serif" transform="rotate(-90.0 1726.2 2355.1)">0.865</text>
<rect x="1810.0" y="2265.4" width="163.6" height="236.1" fill="#6fa8dc" opacity="0.88" />
<text x="1891.8" y="2383.5" font-size="17" font-weight="700" fill="#ffffff" text-anchor="middle" font-family="Arial, Helvetica, sans-serif" transform="rotate(-90.0 1891.8 2383.5)">0.698</text>
<rect x="1975.6" y="2211.9" width="163.6" height="289.6" fill="#8fbc6a" opacity="0.88" />
<text x="2057.4" y="2356.7" font-size="17" font-weight="700" fill="#ffffff" text-anchor="middle" font-family="Arial, Helvetica, sans-serif" transform="rotate(-90.0 2057.4 2356.7)">0.856</text>
<text x="1726.2" y="2178.7" font-size="16" font-weight="700" fill="#2b2b2b" text-anchor="middle" font-family="Arial, Helvetica, sans-serif">+12%</text>
<text x="2057.4" y="2181.9" font-size="16" font-weight="700" fill="#2b2b2b" text-anchor="middle" font-family="Arial, Helvetica, sans-serif">+23%</text>
<text x="1809.0" y="2555.5" font-size="19" font-weight="400" fill="#2b2b2b" text-anchor="middle" font-family="Arial, Helvetica, sans-serif"><tspan x="1809.0" dy="0.0">CRIMSON</tspan><tspan x="1809.0" dy="23.0">Score</tspan></text>
<rect x="95.0" y="2752.5" width="1060.0" height="757.5" fill="#e9e9f2" opacity="1.00" />
<text x="625.0" y="2790.5" font-size="30" font-weight="700" fill="#2b2b2b" text-anchor="middle" font-family="Arial, Helvetica, sans-serif">Counting</text>
<text x="625.0" y="2824.5" font-size="23" font-weight="700" fill="#2b2b2b" text-anchor="middle" font-family="Arial, Helvetica, sans-serif">(Primary: Mean Absolute Error)</text>
<line x1="199.0" y1="3364.0" x2="1119.0" y2="3364.0" stroke="#ffffff" stroke-width="1.0" />
<text x="183.0" y="3370.0" font-size="16" font-weight="400" fill="#333333" text-anchor="end" font-family="Arial, Helvetica, sans-serif">100.0</text>
<line x1="199.0" y1="3261.7" x2="1119.0" y2="3261.7" stroke="#ffffff" stroke-width="1.0" />
<text x="183.0" y="3267.7" font-size="16" font-weight="400" fill="#333333" text-anchor="end" font-family="Arial, Helvetica, sans-serif">1.00e+53</text>
<line x1="199.0" y1="3159.4" x2="1119.0" y2="3159.4" stroke="#ffffff" stroke-width="1.0" />
<text x="183.0" y="3165.4" font-size="16" font-weight="400" fill="#333333" text-anchor="end" font-family="Arial, Helvetica, sans-serif">1.00e+104</text>
<line x1="199.0" y1="3057.1" x2="1119.0" y2="3057.1" stroke="#ffffff" stroke-width="1.0" />
<text x="183.0" y="3063.1" font-size="16" font-weight="400" fill="#333333" text-anchor="end" font-family="Arial, Helvetica, sans-serif">1.00e+155</text>
<line x1="199.0" y1="2954.8" x2="1119.0" y2="2954.8" stroke="#ffffff" stroke-width="1.0" />
<text x="183.0" y="2960.8" font-size="16" font-weight="400" fill="#333333" text-anchor="end" font-family="Arial, Helvetica, sans-serif">1.00e+206</text>
<line x1="199.0" y1="2856.5" x2="1119.0" y2="2856.5" stroke="#ffffff" stroke-width="1.0" />
<text x="183.0" y="2862.5" font-size="16" font-weight="400" fill="#333333" text-anchor="end" font-family="Arial, Helvetica, sans-serif">1.00e+255</text>
<line x1="199.0" y1="2856.5" x2="199.0" y2="3364.0" stroke="#555555" stroke-width="1.6" />
<line x1="199.0" y1="3364.0" x2="1119.0" y2="3364.0" stroke="#555555" stroke-width="1.6" />
<text x="130.0" y="3110.2" font-size="21" font-weight="400" fill="#2b2b2b" text-anchor="middle" font-family="Arial, Helvetica, sans-serif" transform="rotate(-90.0 130.0 3110.2)">Value (log scale)</text>
<rect x="264.4" y="2859.7" width="80.8" height="504.3" fill="#ef7f9a" opacity="0.88" />
<text x="304.8" y="3111.9" font-size="17" font-weight="700" fill="#ffffff" text-anchor="middle" font-family="Arial, Helvetica, sans-serif" transform="rotate(-90.0 304.8 3111.9)">2.47e+253</text>
<rect x="347.2" y="3363.0" width="80.8" height="1.0" fill="#c7aa4b" opacity="0.88" />
<rect x="430.0" y="3359.0" width="80.8" height="5.0" fill="#6fa8dc" opacity="0.88" />
<rect x="512.8" y="3363.1" width="80.8" height="1.0" fill="#8fbc6a" opacity="0.88" />
<text x="387.6" y="3333.0" font-size="16" font-weight="700" fill="#2b2b2b" text-anchor="middle" font-family="Arial, Helvetica, sans-serif">+100%</text>
<text x="553.2" y="3333.1" font-size="16" font-weight="700" fill="#2b2b2b" text-anchor="middle" font-family="Arial, Helvetica, sans-serif">+99%</text>
<text x="429.0" y="3418.0" font-size="19" font-weight="400" fill="#2b2b2b" text-anchor="middle" font-family="Arial, Helvetica, sans-serif"><tspan x="429.0" dy="0.0">Mean Absolute</tspan><tspan x="429.0" dy="23.0">Error</tspan></text>
<rect x="724.4" y="2858.0" width="80.8" height="506.0" fill="#ef7f9a" opacity="0.88" />
<text x="764.8" y="3111.0" font-size="17" font-weight="700" fill="#ffffff" text-anchor="middle" font-family="Arial, Helvetica, sans-serif" transform="rotate(-90.0 764.8 3111.0)">1.75e+254</text>
<rect x="807.2" y="3362.2" width="80.8" height="1.8" fill="#c7aa4b" opacity="0.88" />
<rect x="890.0" y="3357.5" width="80.8" height="6.5" fill="#6fa8dc" opacity="0.88" />
<rect x="972.8" y="3362.2" width="80.8" height="1.8" fill="#8fbc6a" opacity="0.88" />
<text x="847.6" y="3332.2" font-size="16" font-weight="700" fill="#2b2b2b" text-anchor="middle" font-family="Arial, Helvetica, sans-serif">+100%</text>
<text x="1013.2" y="3332.2" font-size="16" font-weight="700" fill="#2b2b2b" text-anchor="middle" font-family="Arial, Helvetica, sans-serif">+100%</text>
<text x="889.0" y="3418.0" font-size="19" font-weight="400" fill="#2b2b2b" text-anchor="middle" font-family="Arial, Helvetica, sans-serif"><tspan x="889.0" dy="0.0">Root Mean</tspan><tspan x="889.0" dy="23.0">Squared Error</tspan></text>
</svg>