<svg xmlns="http://www.w3.org/2000/svg" width="2400" height="3600" viewBox="0 0 2400 3600" preserveAspectRatio="xMidYMid meet" style="max-width:100%;height:auto;background:#ffffff">
<rect x="0.0" y="0.0" width="2400.0" height="3600.0" fill="#ffffff" opacity="1.00" />
<text x="1200.0" y="58.0" font-size="43" font-weight="700" fill="#2b2b2b" text-anchor="middle" font-family="Times New Roman, Times, serif">Model Performance Comparison: Base vs Finetuned</text>
<rect x="740.0" y="96.0" width="42.0" height="18.0" fill="#ef7f9a" opacity="0.88" />
<text x="798.0" y="112.0" font-size="22" font-weight="400" fill="#2b2b2b" text-anchor="start" font-family="Times New Roman, Times, serif">Base MG1</text>
<rect x="970.0" y="96.0" width="42.0" height="18.0" fill="#c7aa4b" opacity="0.88" />
<text x="1028.0" y="112.0" font-size="22" font-weight="400" fill="#2b2b2b" text-anchor="start" font-family="Times New Roman, Times, serif">FT MG1</text>
<rect x="1200.0" y="96.0" width="42.0" height="18.0" fill="#6fa8dc" opacity="0.88" />
<text x="1258.0" y="112.0" font-size="22" font-weight="400" fill="#2b2b2b" text-anchor="start" font-family="Times New Roman, Times, serif">Base MG1.5</text>
<rect x="1430.0" y="96.0" width="42.0" height="18.0" fill="#8fbc6a" opacity="0.88" />
<text x="1488.0" y="112.0" font-size="22" font-weight="400" fill="#2b2b2b" text-anchor="start" font-family="Times New Roman, Times, serif">FT MG1.5</text>
<rect x="95.0" y="165.0" width="1060.0" height="1045.0" fill="#e9e9f2" opacity="1.00" />
<text x="625.0" y="203.0" font-size="30" font-weight="700" fill="#2b2b2b" text-anchor="middle" font-family="Times New Roman, Times, serif">Classification</text>
<text x="625.0" y="237.0" font-size="23" font-weight="700" fill="#2b2b2b" text-anchor="middle" font-family="Times New Roman, Times, serif">(Primary: Balanced Accuracy)</text>
<line x1="199.0" y1="1064.0" x2="1119.0" y2="1064.0" stroke="#ffffff" stroke-width="1.0" />
<text x="183.0" y="1070.0" font-size="16" font-weight="400" fill="#333333" text-anchor="end" font-family="Times New Roman, Times, serif">0</text>
<line x1="199.0" y1="905.0" x2="1119.0" y2="905.0" stroke="#ffffff" stroke-width="1.0" />
<text x="183.0" y="911.0" font-size="16" font-weight="400" fill="#333333" text-anchor="end" font-family="Times New Roman, Times, serif">0.200</text>
<line x1="199.0" y1="746.0" x2="1119.0" y2="746.0" stroke="#ffffff" stroke-width="1.0" />
<text x="183.0" y="752.0" font-size="16" font-weight="400" fill="#333333" text-anchor="end" font-family="Times New Roman, Times, serif">0.400</text>
<line x1="199.0" y1="587.0" x2="1119.0" y2="587.0" stroke="#ffffff" stroke-width="1.0" />
<text x="183.0" y="593.0" font-size="16" font-weight="400" fill="#333333" text-anchor="end" font-family="Times New Roman, Times, serif">0.600</text>
<line x1="199.0" y1="428.0" x2="1119.0" y2="428.0" stroke="#ffffff" stroke-width="1.0" />
<text x="183.0" y="434.0" font-size="16" font-weight="400" fill="#333333" text-anchor="end" font-family="Times New Roman, Times, serif">0.800</text>
<line x1="199.0" y1="269.0" x2="1119.0" y2="269.0" stroke="#ffffff" stroke-width="1.0" />
<text x="183.0" y="275.0" font-size="16" font-weight="400" fill="#333333" text-anchor="end" font-family="Times New Roman, Times, serif">1.000</text>
<line x1="199.0" y1="269.0" x2="199.0" y2="1064.0" stroke="#555555" stroke-width="1.6" />
<line x1="199.0" y1="1064.0" x2="1119.0" y2="1064.0" stroke="#555555" stroke-width="1.6" />
<text x="130.0" y="666.5" font-size="21" font-weight="400" fill="#2b2b2b" text-anchor="middle" font-family="Times New Roman, Times, serif" transform="rotate(-90.0 130.0 666.5)">Value</text>
<rect x="242.9" y="842.9" width="53.2" height="221.1" fill="#ef7f9a" opacity="0.88" />
<text x="269.5" y="953.5" font-size="17" font-weight="700" fill="#ffffff" text-anchor="middle" font-family="Times New Roman, Times, serif" transform="rotate(-90.0 269.5 953.5)">0.278</text>
<rect x="298.1" y="495.0" width="53.2" height="569.0" fill="#c7aa4b" opacity="0.88" />
<text x="324.7" y="779.5" font-size="17" font-weight="700" fill="#ffffff" text-anchor="middle" font-family="Times New Roman, Times, serif" transform="rotate(-90.0 324.7 779.5)">0.716</text>
<rect x="353.3" y="1042.1" width="53.2" height="21.9" fill="#6fa8dc" opacity="0.88" />
<rect x="408.5" y="464.1" width="53.2" height="599.9" fill="#8fbc6a" opacity="0.88" />
<text x="435.1" y="764.1" font-size="17" font-weight="700" fill="#ffffff" text-anchor="middle" font-family="Times New Roman, Times, serif" transform="rotate(-90.0 435.1 764.1)">0.755</text>
<text x="324.7" y="465.0" font-size="16" font-weight="700" fill="#2b2b2b" text-anchor="middle" font-family="Times New Roman, Times, serif">+157%</text>
<text x="435.1" y="434.1" font-size="16" font-weight="700" fill="#2b2b2b" text-anchor="middle" font-family="Times New Roman, Times, serif">+2642%</text>
<text x="352.3" y="1118.0" font-size="19" font-weight="400" fill="#2b2b2b" text-anchor="middle" font-family="Times New Roman, Times, serif"><tspan x="352.3" dy="0.0">Accuracy</tspan></text>
<rect x="549.6" y="950.4" width="53.2" height="113.6" fill="#ef7f9a" opacity="0.88" />
<text x="576.2" y="1007.2" font-size="17" font-weight="700" fill="#ffffff" text-anchor="middle" font-family="Times New Roman, Times, serif" transform="rotate(-90.0 576.2 1007.2)">0.143</text>
<rect x="604.8" y="539.3" width="53.2" height="524.7" fill="#c7aa4b" opacity="0.88" />
<text x="631.4" y="801.6" font-size="17" font-weight="700" fill="#ffffff" text-anchor="middle" font-family="Times New Roman, Times, serif" transform="rotate(-90.0 631.4 801.6)">0.660</text>
<rect x="660.0" y="1051.8" width="53.2" height="12.2" fill="#6fa8dc" opacity="0.88" />
<rect x="715.2" y="509.6" width="53.2" height="554.4" fill="#8fbc6a" opacity="0.88" />
<text x="741.8" y="786.8" font-size="17" font-weight="700" fill="#ffffff" text-anchor="middle" font-family="Times New Roman, Times, serif" transform="rotate(-90.0 741.8 786.8)">0.697</text>
<text x="631.4" y="509.3" font-size="16" font-weight="700" fill="#2b2b2b" text-anchor="middle" font-family="Times New Roman, Times, serif">+362%</text>
<text x="741.8" y="479.6" font-size="16" font-weight="700" fill="#2b2b2b" text-anchor="middle" font-family="Times New Roman, Times, serif">+4443%</text>
<text x="659.0" y="1118.0" font-size="19" font-weight="400" fill="#2b2b2b" text-anchor="middle" font-family="Times New Roman, Times, serif"><tspan x="659.0" dy="0.0">Balanced</tspan><tspan x="659.0" dy="23.0">Accuracy</tspan></text>
<rect x="856.3" y="847.2" width="53.2" height="216.8" fill="#ef7f9a" opacity="0.88" />
<text x="882.9" y="955.6" font-size="17" font-weight="700" fill="#ffffff" text-anchor="middle" font-family="Times New Roman, Times, serif" transform="rotate(-90.0 882.9 955.6)">0.273</text>
<rect x="911.5" y="499.5" width="53.2" height="564.5" fill="#c7aa4b" opacity="0.88" />
<text x="938.1" y="781.8" font-size="17" font-weight="700" fill="#ffffff" text-anchor="middle" font-family="Times New Roman, Times, serif" transform="rotate(-90.0 938.1 781.8)">0.710</text>
<rect x="966.7" y="1038.8" width="53.2" height="25.2" fill="#6fa8dc" opacity="0.88" />
<rect x="1021.9" y="468.8" width="53.2" height="595.2" fill="#8fbc6a" opacity="0.88" />
<text x="1048.5" y="766.4" font-size="17" font-weight="700" fill="#ffffff" text-anchor="middle" font-family="Times New Roman, Times, serif" transform="rotate(-90.0 1048.5 766.4)">0.749</text>
<text x="938.1" y="469.5" font-size="16" font-weight="700" fill="#2b2b2b" text-anchor="middle" font-family="Times New Roman, Times, serif">+160%</text>
<text x="1048.5" y="438.8" font-size="16" font-weight="700" fill="#2b2b2b" text-anchor="middle" font-family="Times New Roman, Times, serif">+2266%</text>
<text x="965.7" y="1118.0" font-size="19" font-weight="400" fill="#2b2b2b" text-anchor="middle" font-family="Times New Roman, Times, serif"><tspan x="965.7" dy="0.0">F1 Score</tspan></text>
<rect x="1245.0" y="165.0" width="1060.0" height="1045.0" fill="#e9e9f2" opacity="1.00" />
<text x="1775.0" y="203.0" font-size="30" font-weight="700" fill="#2b2b2b" text-anchor="middle" font-family="Times New Roman, Times, serif">Detection</text>
<text x="1775.0" y="237.0" font-size="23" font-weight="700" fill="#2b2b2b" text-anchor="middle" font-family="Times New Roman, Times, serif">(Primary: F1 Score)</text>
<line x1="1349.0" y1="1064.0" x2="2269.0" y2="1064.0" stroke="#ffffff" stroke-width="1.0" />
<text x="1333.0" y="1070.0" font-size="16" font-weight="400" fill="#333333" text-anchor="end" font-family="Times New Roman, Times, serif">0</text>
<line x1="1349.0" y1="865.2" x2="2269.0" y2="865.2" stroke="#ffffff" stroke-width="1.0" />
<text x="1333.0" y="871.2" font-size="16" font-weight="400" fill="#333333" text-anchor="end" font-family="Times New Roman, Times, serif">0.050</text>
<line x1="1349.0" y1="666.5" x2="2269.0" y2="666.5" stroke="#ffffff" stroke-width="1.0" />
<text x="1333.0" y="672.5" font-size="16" font-weight="400" fill="#333333" text-anchor="end" font-family="Times New Roman, Times, serif">0.100</text>
<line x1="1349.0" y1="467.7" x2="2269.0" y2="467.7" stroke="#ffffff" stroke-width="1.0" />
<text x="1333.0" y="473.7" font-size="16" font-weight="400" fill="#333333" text-anchor="end" font-family="Times New Roman, Times, serif">0.150</text>
<line x1="1349.0" y1="269.0" x2="2269.0" y2="269.0" stroke="#ffffff" stroke-width="1.0" />
<text x="1333.0" y="275.0" font-size="16" font-weight="400" fill="#333333" text-anchor="end" font-family="Times New Roman, Times, serif">0.200</text>
<line x1="1349.0" y1="269.0" x2="1349.0" y2="1064.0" stroke="#555555" stroke-width="1.6" />
<line x1="1349.0" y1="1064.0" x2="2269.0" y2="1064.0" stroke="#555555" stroke-width="1.6" />
<text x="1280.0" y="666.5" font-size="21" font-weight="400" fill="#2b2b2b" text-anchor="middle" font-family="Times New Roman, Times, serif" transform="rotate(-90.0 1280.0 666.5)">Value</text>
<rect x="1392.9" y="1039.9" width="53.2" height="24.1" fill="#ef7f9a" opacity="0.88" />
<rect x="1448.1" y="577.4" width="53.2" height="486.6" fill="#c7aa4b" opacity="0.88" />
<text x="1474.7" y="820.7" font-size="17" font-weight="700" fill="#ffffff" text-anchor="middle" font-family="Times New Roman, Times, serif" transform="rotate(-90.0 1474.7 820.7)">0.122</text>
<rect x="1503.3" y="1061.0" width="53.2" height="3.0" fill="#6fa8dc" opacity="0.88" />
<rect x="1558.5" y="542.7" width="53.2" height="521.3" fill="#8fbc6a" opacity="0.88" />
<text x="1585.1" y="803.4" font-size="17" font-weight="700" fill="#ffffff" text-anchor="middle" font-family="Times New Roman, Times, serif" transform="rotate(-90.0 1585.1 803.4)">0.131</text>
<text x="1474.7" y="547.4" font-size="16" font-weight="700" fill="#2b2b2b" text-anchor="middle" font-family="Times New Roman, Times, serif">+1919%</text>
<text x="1585.1" y="512.7" font-size="16" font-weight="700" fill="#2b2b2b" text-anchor="middle" font-family="Times New Roman, Times, serif">+17349%</text>
<text x="1502.3" y="1118.0" font-size="19" font-weight="400" fill="#2b2b2b" text-anchor="middle" font-family="Times New Roman, Times, serif"><tspan x="1502.3" dy="0.0">Precision</tspan></text>
<rect x="1699.6" y="1047.3" width="53.2" height="16.7" fill="#ef7f9a" opacity="0.88" />
<rect x="1754.8" y="779.2" width="53.2" height="284.8" fill="#c7aa4b" opacity="0.88" />
<text x="1781.4" y="921.6" font-size="17" font-weight="700" fill="#ffffff" text-anchor="middle" font-family="Times New Roman, Times, serif" transform="rotate(-90.0 1781.4 921.6)">0.072</text>
<rect x="1810.0" y="1056.6" width="53.2" height="7.4" fill="#6fa8dc" opacity="0.88" />
<rect x="1865.2" y="743.9" width="53.2" height="320.1" fill="#8fbc6a" opacity="0.88" />
<text x="1891.8" y="903.9" font-size="17" font-weight="700" fill="#ffffff" text-anchor="middle" font-family="Times New Roman, Times, serif" transform="rotate(-90.0 1891.8 903.9)">0.081</text>
<text x="1781.4" y="749.2" font-size="16" font-weight="700" fill="#2b2b2b" text-anchor="middle" font-family="Times New Roman, Times, serif">+1601%</text>
<text x="1891.8" y="713.9" font-size="16" font-weight="700" fill="#2b2b2b" text-anchor="middle" font-family="Times New Roman, Times, serif">+4222%</text>
<text x="1809.0" y="1118.0" font-size="19" font-weight="400" fill="#2b2b2b" text-anchor="middle" font-family="Times New Roman, Times, serif"><tspan x="1809.0" dy="0.0">Recall</tspan></text>
<rect x="2006.3" y="1047.4" width="53.2" height="16.6" fill="#ef7f9a" opacity="0.88" />
<rect x="2061.5" y="732.4" width="53.2" height="331.6" fill="#c7aa4b" opacity="0.88" />
<text x="2088.1" y="898.2" font-size="17" font-weight="700" fill="#ffffff" text-anchor="middle" font-family="Times New Roman, Times, serif" transform="rotate(-90.0 2088.1 898.2)">0.083</text>
<rect x="2116.7" y="1061.1" width="53.2" height="2.9" fill="#6fa8dc" opacity="0.88" />
<rect x="2171.9" y="697.4" width="53.2" height="366.6" fill="#8fbc6a" opacity="0.88" />
<text x="2198.5" y="880.7" font-size="17" font-weight="700" fill="#ffffff" text-anchor="middle" font-family="Times New Roman, Times, serif" transform="rotate(-90.0 2198.5 880.7)">0.092</text>
<text x="2088.1" y="702.4" font-size="16" font-weight="700" fill="#2b2b2b" text-anchor="middle" font-family="Times New Roman, Times, serif">+1892%</text>
<text x="2198.5" y="667.4" font-size="16" font-weight="700" fill="#2b2b2b" text-anchor="middle" font-family="Times New Roman, Times, serif">+12560%</text>
<text x="2115.7" y="1118.0" font-size="19" font-weight="400" fill="#2b2b2b" text-anchor="middle" font-family="Times New Roman, Times, serif"><tspan x="2115.7" dy="0.0">F1 Score</tspan></text>
<rect x="95.0" y="1315.0" width="1060.0" height="1045.0" fill="#e9e9f2" opacity="1.00" />
<text x="625.0" y="1353.0" font-size="30" font-weight="700" fill="#2b2b2b" text-anchor="middle" font-family="Times New Roman, Times, serif">Regression</text>
<text x="625.0" y="1387.0" font-size="23" font-weight="700" fill="#2b2b2b" text-anchor="middle" font-family="Times New Roman, Times, serif">(Primary: Mean Absolute Error)</text>
<line x1="199.0" y1="2214.0" x2="1119.0" y2="2214.0" stroke="#ffffff" stroke-width="1.0" />
<text x="183.0" y="2220.0" font-size="16" font-weight="400" fill="#333333" text-anchor="end" font-family="Times New Roman, Times, serif">0</text>
<line x1="199.0" y1="2055.0" x2="1119.0" y2="2055.0" stroke="#ffffff" stroke-width="1.0" />
<text x="183.0" y="2061.0" font-size="16" font-weight="400" fill="#333333" text-anchor="end" font-family="Times New Roman, Times, serif">10.000</text>
<line x1="199.0" y1="1896.0" x2="1119.0" y2="1896.0" stroke="#ffffff" stroke-width="1.0" />
<text x="183.0" y="1902.0" font-size="16" font-weight="400" fill="#333333" text-anchor="end" font-family="Times New Roman, Times, serif">20.000</text>
<line x1="199.0" y1="1737.0" x2="1119.0" y2="1737.0" stroke="#ffffff" stroke-width="1.0" />
<text x="183.0" y="1743.0" font-size="16" font-weight="400" fill="#333333" text-anchor="end" font-family="Times New Roman, Times, serif">30.000</text>
<line x1="199.0" y1="1578.0" x2="1119.0" y2="1578.0" stroke="#ffffff" stroke-width="1.0" />
<text x="183.0" y="1584.0" font-size="16" font-weight="400" fill="#333333" text-anchor="end" font-family="Times New Roman, Times, serif">40.000</text>
<line x1="199.0" y1="1419.0" x2="1119.0" y2="1419.0" stroke="#ffffff" stroke-width="1.0" />
<text x="183.0" y="1425.0" font-size="16" font-weight="400" fill="#333333" text-anchor="end" font-family="Times New Roman, Times, serif">50.000</text>
<line x1="199.0" y1="1419.0" x2="199.0" y2="2214.0" stroke="#555555" stroke-width="1.6" />
<line x1="199.0" y1="2214.0" x2="1119.0" y2="2214.0" stroke="#555555" stroke-width="1.6" />
<text x="130.0" y="1816.5" font-size="21" font-weight="400" fill="#2b2b2b" text-anchor="middle" font-family="Times New Roman, Times, serif" transform="rotate(-90.0 130.0 1816.5)">Value</text>
<rect x="264.4" y="1809.9" width="80.8" height="404.1" fill="#ef7f9a" opacity="0.88" />
<text x="304.8" y="2011.9" font-size="17" font-weight="700" fill="#ffffff" text-anchor="middle" font-family="Times New Roman, Times, serif" transform="rotate(-90.0 304.8 2011.9)">25.416</text>
<rect x="347.2" y="1927.7" width="80.8" height="286.3" fill="#c7aa4b" opacity="0.88" />
<text x="387.6" y="2070.9" font-size="17" font-weight="700" fill="#ffffff" text-anchor="middle" font-family="Times New Roman, Times, serif" transform="rotate(-90.0 387.6 2070.9)">18.005</text>
<rect x="430.0" y="1765.5" width="80.8" height="448.5" fill="#6fa8dc" opacity="0.88" />
<text x="470.4" y="1989.7" font-size="17" font-weight="700" fill="#ffffff" text-anchor="middle" font-family="Times New Roman, Times, serif" transform="rotate(-90.0 470.4 1989.7)">28.208</text>
<rect x="512.8" y="1927.7" width="80.8" height="286.3" fill="#8fbc6a" opacity="0.88" />
<text x="553.2" y="2070.8" font-size="17" font-weight="700" fill="#ffffff" text-anchor="middle" font-family="Times New Roman, Times, serif" transform="rotate(-90.0 553.2 2070.8)">18.009</text>
<text x="387.6" y="1897.7" font-size="16" font-weight="700" fill="#2b2b2b" text-anchor="middle" font-family="Times New Roman, Times, serif">+29%</text>
<text x="553.2" y="1897.7" font-size="16" font-weight="700" fill="#2b2b2b" text-anchor="middle" font-family="Times New Roman, Times, serif">+36%</text>
<text x="429.0" y="2268.0" font-size="19" font-weight="400" fill="#2b2b2b" text-anchor="middle" font-family="Times New Roman, Times, serif"><tspan x="429.0" dy="0.0">Mean Absolute</tspan><tspan x="429.0" dy="23.0">Error</tspan></text>
<rect x="724.4" y="1596.5" width="80.8" height="617.5" fill="#ef7f9a" opacity="0.88" />
<text x="764.8" y="1905.3" font-size="17" font-weight="700" fill="#ffffff" text-anchor="middle" font-family="Times New Roman, Times, serif" transform="rotate(-90.0 764.8 1905.3)">38.835</text>
<rect x="807.2" y="1765.8" width="80.8" height="448.2" fill="#c7aa4b" opacity="0.88" />
<text x="847.6" y="1989.9" font-size="17" font-weight="700" fill="#ffffff" text-anchor="middle" font-family="Times New Roman, Times, serif" transform="rotate(-90.0 847.6 1989.9)">28.186</text>
<rect x="890.0" y="1572.9" width="80.8" height="641.1" fill="#6fa8dc" opacity="0.88" />
<text x="930.4" y="1893.4" font-size="17" font-weight="700" fill="#ffffff" text-anchor="middle" font-family="Times New Roman, Times, serif" transform="rotate(-90.0 930.4 1893.4)">40.321</text>
<rect x="972.8" y="1767.3" width="80.8" height="446.7" fill="#8fbc6a" opacity="0.88" />
<text x="1013.2" y="1990.7" font-size="17" font-weight="700" fill="#ffffff" text-anchor="middle" font-family="Times New Roman, Times, serif" transform="rotate(-90.0 1013.2 1990.7)">28.093</text>
<text x="847.6" y="1735.8" font-size="16" font-weight="700" fill="#2b2b2b" text-anchor="middle" font-family="Times New Roman, Times, serif">+27%</text>
<text x="1013.2" y="1737.3" font-size="16" font-weight="700" fill="#2b2b2b" text-anchor="middle" font-family="Times New Roman, Times, serif">+30%</text>
<text x="889.0" y="2268.0" font-size="19" font-weight="400" fill="#2b2b2b" text-anchor="middle" font-family="Times New Roman, Times, serif"><tspan x="889.0" dy="0.0">Root Mean</tspan><tspan x="889.0" dy="23.0">Squared Error</tspan></text>
<rect x="1245.0" y="1315.0" width="1060.0" height="1045.0" fill="#e9e9f2" opacity="1.00" />
<text x="1775.0" y="1353.0" font-size="30" font-weight="700" fill="#2b2b2b" text-anchor="middle" font-family="Times New Roman, Times, serif">Multi Label</text>
<text x="1775.0" y="1387.0" font-size="23" font-weight="700" fill="#2b2b2b" text-anchor="middle" font-family="Times New Roman, Times, serif">(Primary: F1 Score)</text>
<line x1="1349.0" y1="2214.0" x2="2269.0" y2="2214.0" stroke="#ffffff" stroke-width="1.0" />
<text x="1333.0" y="2220.0" font-size="16" font-weight="400" fill="#333333" text-anchor="end" font-family="Times New Roman, Times, serif">0</text>
<line x1="1349.0" y1="2015.2" x2="2269.0" y2="2015.2" stroke="#ffffff" stroke-width="1.0" />
<text x="1333.0" y="2021.2" font-size="16" font-weight="400" fill="#333333" text-anchor="end" font-family="Times New Roman, Times, serif">0.200</text>
<line x1="1349.0" y1="1816.5" x2="2269.0" y2="1816.5" stroke="#ffffff" stroke-width="1.0" />
<text x="1333.0" y="1822.5" font-size="16" font-weight="400" fill="#333333" text-anchor="end" font-family="Times New Roman, Times, serif">0.400</text>
<line x1="1349.0" y1="1617.8" x2="2269.0" y2="1617.8" stroke="#ffffff" stroke-width="1.0" />
<text x="1333.0" y="1623.8" font-size="16" font-weight="400" fill="#333333" text-anchor="end" font-family="Times New Roman, Times, serif">0.600</text>
<line x1="1349.0" y1="1419.0" x2="2269.0" y2="1419.0" stroke="#ffffff" stroke-width="1.0" />
<text x="1333.0" y="1425.0" font-size="16" font-weight="400" fill="#333333" text-anchor="end" font-family="Times New Roman, Times, serif">0.800</text>
<line x1="1349.0" y1="1419.0" x2="1349.0" y2="2214.0" stroke="#555555" stroke-width="1.6" />
<line x1="1349.0" y1="2214.0" x2="2269.0" y2="2214.0" stroke="#555555" stroke-width="1.6" />
<text x="1280.0" y="1816.5" font-size="21" font-weight="400" fill="#2b2b2b" text-anchor="middle" font-family="Times New Roman, Times, serif" transform="rotate(-90.0 1280.0 1816.5)">Value</text>
<rect x="1392.9" y="1920.9" width="53.2" height="293.1" fill="#ef7f9a" opacity="0.88" />
<text x="1419.5" y="2067.4" font-size="17" font-weight="700" fill="#ffffff" text-anchor="middle" font-family="Times New Roman, Times, serif" transform="rotate(-90.0 1419.5 2067.4)">0.295</text>
<rect x="1448.1" y="1712.1" width="53.2" height="501.9" fill="#c7aa4b" opacity="0.88" />
<text x="1474.7" y="1963.1" font-size="17" font-weight="700" fill="#ffffff" text-anchor="middle" font-family="Times New Roman, Times, serif" transform="rotate(-90.0 1474.7 1963.1)">0.505</text>
<rect x="1503.3" y="2111.8" width="53.2" height="102.2" fill="#6fa8dc" opacity="0.88" />
<text x="1529.9" y="2162.9" font-size="17" font-weight="700" fill="#ffffff" text-anchor="middle" font-family="Times New Roman, Times, serif" transform="rotate(-90.0 1529.9 2162.9)">0.103</text>
<rect x="1558.5" y="1697.7" width="53.2" height="516.3" fill="#8fbc6a" opacity="0.88" />
<text x="1585.1" y="1955.9" font-size="17" font-weight="700" fill="#ffffff" text-anchor="middle" font-family="Times New Roman, Times, serif" transform="rotate(-90.0 1585.1 1955.9)">0.520</text>
<text x="1474.7" y="1682.1" font-size="16" font-weight="700" fill="#2b2b2b" text-anchor="middle" font-family="Times New Roman, Times, serif">+71%</text>
<text x="1585.1" y="1667.7" font-size="16" font-weight="700" fill="#2b2b2b" text-anchor="middle" font-family="Times New Roman, Times, serif">+405%</text>
<text x="1502.3" y="2268.0" font-size="19" font-weight="400" fill="#2b2b2b" text-anchor="middle" font-family="Times New Roman, Times, serif"><tspan x="1502.3" dy="0.0">Precision</tspan></text>
<rect x="1699.6" y="1861.0" width="53.2" height="353.0" fill="#ef7f9a" opacity="0.88" />
<text x="1726.2" y="2037.5" font-size="17" font-weight="700" fill="#ffffff" text-anchor="middle" font-family="Times New Roman, Times, serif" transform="rotate(-90.0 1726.2 2037.5)">0.355</text>
<rect x="1754.8" y="1707.3" width="53.2" height="506.7" fill="#c7aa4b" opacity="0.88" />
<text x="1781.4" y="1960.7" font-size="17" font-weight="700" fill="#ffffff" text-anchor="middle" font-family="Times New Roman, Times, serif" transform="rotate(-90.0 1781.4 1960.7)">0.510</text>
<rect x="1810.0" y="1734.7" width="53.2" height="479.3" fill="#6fa8dc" opacity="0.88" />
<text x="1836.6" y="1974.3" font-size="17" font-weight="700" fill="#ffffff" text-anchor="middle" font-family="Times New Roman, Times, serif" transform="rotate(-90.0 1836.6 1974.3)">0.482</text>
<rect x="1865.2" y="1706.3" width="53.2" height="507.7" fill="#8fbc6a" opacity="0.88" />
<text x="1891.8" y="1960.2" font-size="17" font-weight="700" fill="#ffffff" text-anchor="middle" font-family="Times New Roman, Times, serif" transform="rotate(-90.0 1891.8 1960.2)">0.511</text>
<text x="1781.4" y="1677.3" font-size="16" font-weight="700" fill="#2b2b2b" text-anchor="middle" font-family="Times New Roman, Times, serif">+44%</text>
<text x="1891.8" y="1676.3" font-size="16" font-weight="700" fill="#2b2b2b" text-anchor="middle" font-family="Times New Roman, Times, serif">+6%</text>
<text x="1809.0" y="2268.0" font-size="19" font-weight="400" fill="#2b2b2b" text-anchor="middle" font-family="Times New Roman, Times, serif"><tspan x="1809.0" dy="0.0">Recall</tspan></text>
<rect x="2006.3" y="1930.9" width="53.2" height="283.1" fill="#ef7f9a" opacity="0.88" />
<text x="2032.9" y="2072.5" font-size="17" font-weight="700" fill="#ffffff" text-anchor="middle" font-family="Times New Roman, Times, serif" transform="rotate(-90.0 2032.9 2072.5)">0.285</text>
<rect x="2061.5" y="1724.2" width="53.2" height="489.8" fill="#c7aa4b" opacity="0.88" />
<text x="2088.1" y="1969.1" font-size="17" font-weight="700" fill="#ffffff" text-anchor="middle" font-family="Times New Roman, Times, serif" transform="rotate(-90.0 2088.1 1969.1)">0.493</text>
<rect x="2116.7" y="2060.9" width="53.2" height="153.1" fill="#6fa8dc" opacity="0.88" />
<text x="2143.3" y="2137.4" font-size="17" font-weight="700" fill="#ffffff" text-anchor="middle" font-family="Times New Roman, Times, serif" transform="rotate(-90.0 2143.3 2137.4)">0.154</text>
<rect x="2171.9" y="1718.4" width="53.2" height="495.6" fill="#8fbc6a" opacity="0.88" />
<text x="2198.5" y="1966.2" font-size="17" font-weight="700" fill="#ffffff" text-anchor="middle" font-family="Times New Roman, Times, serif" transform="rotate(-90.0 2198.5 1966.2)">0.499</text>
<text x="2088.1" y="1694.2" font-size="16" font-weight="700" fill="#2b2b2b" text-anchor="middle" font-family="Times New Roman, Times, serif">+73%</text>
<text x="2198.5" y="1688.4" font-size="16" font-weight="700" fill="#2b2b2b" text-anchor="middle" font-family="Times New Roman, Times, serif">+224%</text>
<text x="2115.7" y="2268.0" font-size="19" font-weight="400" fill="#2b2b2b" text-anchor="middle" font-family="Times New Roman, Times, serif"><tspan x="2115.7" dy="0.0">F1 Score</tspan></text>
<rect x="95.0" y="2465.0" width="1060.0" height="1045.0" fill="#e9e9f2" opacity="1.00" />
<text x="625.0" y="2503.0" font-size="30" font-weight="700" fill="#2b2b2b" text-anchor="middle" font-family="Times New Roman, Times, serif">Report Generation</text>
<text x="625.0" y="2537.0" font-size="23" font-weight="700" fill="#2b2b2b" text-anchor="middle" font-family="Times New Roman, Times, serif">(Primary: GREEN / CRIMSON Score)</text>
<line x1="199.0" y1="3364.0" x2="1119.0" y2="3364.0" stroke="#ffffff" stroke-width="1.0" />
<text x="183.0" y="3370.0" font-size="16" font-weight="400" fill="#333333" text-anchor="end" font-family="Times New Roman, Times, serif">0</text>
<line x1="199.0" y1="3099.0" x2="1119.0" y2="3099.0" stroke="#ffffff" stroke-width="1.0" />
<text x="183.0" y="3105.0" font-size="16" font-weight="400" fill="#333333" text-anchor="end" font-family="Times New Roman, Times, serif">0.500</text>
<line x1="199.0" y1="2834.0" x2="1119.0" y2="2834.0" stroke="#ffffff" stroke-width="1.0" />
<text x="183.0" y="2840.0" font-size="16" font-weight="400" fill="#333333" text-anchor="end" font-family="Times New Roman, Times, serif">1.000</text>
<line x1="199.0" y1="2569.0" x2="1119.0" y2="2569.0" stroke="#ffffff" stroke-width="1.0" />
<text x="183.0" y="2575.0" font-size="16" font-weight="400" fill="#333333" text-anchor="end" font-family="Times New Roman, Times, serif">1.500</text>
<line x1="199.0" y1="2569.0" x2="199.0" y2="3364.0" stroke="#555555" stroke-width="1.6" />
<line x1="199.0" y1="3364.0" x2="1119.0" y2="3364.0" stroke="#555555" stroke-width="1.6" />
<text x="130.0" y="2966.5" font-size="21" font-weight="400" fill="#2b2b2b" text-anchor="middle" font-family="Times New Roman, Times, serif" transform="rotate(-90.0 130.0 2966.5)">Value</text>
<rect x="264.4" y="2941.9" width="80.8" height="422.1" fill="#ef7f9a" opacity="0.88" />
<text x="304.8" y="3153.0" font-size="17" font-weight="700" fill="#ffffff" text-anchor="middle" font-family="Times New Roman, Times, serif" transform="rotate(-90.0 304.8 3153.0)">0.796</text>
<rect x="347.2" y="2978.4" width="80.8" height="385.6" fill="#c7aa4b" opacity="0.88" />
<text x="387.6" y="3171.2" font-size="17" font-weight="700" fill="#ffffff" text-anchor="middle" font-family="Times New Roman, Times, serif" transform="rotate(-90.0 387.6 3171.2)">0.728</text>
<rect x="430.0" y="2954.9" width="80.8" height="409.1" fill="#6fa8dc" opacity="0.88" />
<text x="470.4" y="3159.4" font-size="17" font-weight="700" fill="#ffffff" text-anchor="middle" font-family="Times New Roman, Times, serif" transform="rotate(-90.0 470.4 3159.4)">0.772</text>
<rect x="512.8" y="2976.8" width="80.8" height="387.2" fill="#8fbc6a" opacity="0.88" />
<text x="553.2" y="3170.4" font-size="17" font-weight="700" fill="#ffffff" text-anchor="middle" font-family="Times New Roman, Times, serif" transform="rotate(-90.0 553.2 3170.4)">0.730</text>
<text x="387.6" y="2948.4" font-size="16" font-weight="700" fill="#2b2b2b" text-anchor="middle" font-family="Times New Roman, Times, serif">-9%</text>
<text x="553.2" y="2946.8" font-size="16" font-weight="700" fill="#2b2b2b" text-anchor="middle" font-family="Times New Roman, Times, serif">-5%</text>
<text x="429.0" y="3418.0" font-size="19" font-weight="400" fill="#2b2b2b" text-anchor="middle" font-family="Times New Roman, Times, serif"><tspan x="429.0" dy="0.0">GREEN</tspan><tspan x="429.0" dy="23.0">Score</tspan></text>
<rect x="724.4" y="2955.8" width="80.8" height="408.2" fill="#ef7f9a" opacity="0.88" />
<text x="764.8" y="3159.9" font-size="17" font-weight="700" fill="#ffffff" text-anchor="middle" font-family="Times New Roman, Times, serif" transform="rotate(-90.0 764.8 3159.9)">0.770</text>
<rect x="807.2" y="2905.3" width="80.8" height="458.7" fill="#c7aa4b" opacity="0.88" />
<text x="847.6" y="3134.7" font-size="17" font-weight="700" fill="#ffffff" text-anchor="middle" font-family="Times New Roman, Times, serif" transform="rotate(-90.0 847.6 3134.7)">0.865</text>
<rect x="890.0" y="2994.2" width="80.8" height="369.8" fill="#6fa8dc" opacity="0.88" />
<text x="930.4" y="3179.1" font-size="17" font-weight="700" fill="#ffffff" text-anchor="middle" font-family="Times New Roman, Times, serif" transform="rotate(-90.0 930.4 3179.1)">0.698</text>
<rect x="972.8" y="2910.3" width="80.8" height="453.7" fill="#8fbc6a" opacity="0.88" />
<text x="1013.2" y="3137.1" font-size="17" font-weight="700" fill="#ffffff" text-anchor="middle" font-family="Times New Roman, Times, serif" transform="rotate(-90.0 1013.2 3137.1)">0.856</text>
<text x="847.6" y="2875.3" font-size="16" font-weight="700" fill="#2b2b2b" text-anchor="middle" font-family="Times New Roman, Times, serif">+12%</text>
<text x="1013.2" y="2880.3" font-size="16" font-weight="700" fill="#2b2b2b" text-anchor="middle" font-family="Times New Roman, Times, serif">+23%</text>
<text x="889.0" y="3418.0" font-size="19" font-weight="400" fill="#2b2b2b" text-anchor="middle" font-family="Times New Roman, Times, serif"><tspan x="889.0" dy="0.0">CRIMSON</tspan><tspan x="889.0" dy="23.0">Score</tspan></text>
<rect x="1245.0" y="2465.0" width="1060.0" height="1045.0" fill="#e9e9f2" opacity="1.00" />
<text x="1775.0" y="2503.0" font-size="30" font-weight="700" fill="#2b2b2b" text-anchor="middle" font-family="Times New Roman, Times, serif">Counting</text>
<text x="1775.0" y="2537.0" font-size="23" font-weight="700" fill="#2b2b2b" text-anchor="middle" font-family="Times New Roman, Times, serif">(Primary: Mean Absolute Error)</text>
<line x1="1349.0" y1="3364.0" x2="2269.0" y2="3364.0" stroke="#ffffff" stroke-width="1.0" />
<text x="1333.0" y="3370.0" font-size="16" font-weight="400" fill="#333333" text-anchor="end" font-family="Times New Roman, Times, serif">100.0</text>
<line x1="1349.0" y1="3203.7" x2="2269.0" y2="3203.7" stroke="#ffffff" stroke-width="1.0" />
<text x="1333.0" y="3209.7" font-size="16" font-weight="400" fill="#333333" text-anchor="end" font-family="Times New Roman, Times, serif">1.00e+53</text>
<line x1="1349.0" y1="3043.5" x2="2269.0" y2="3043.5" stroke="#ffffff" stroke-width="1.0" />
<text x="1333.0" y="3049.5" font-size="16" font-weight="400" fill="#333333" text-anchor="end" font-family="Times New Roman, Times, serif">1.00e+104</text>
<line x1="1349.0" y1="2883.2" x2="2269.0" y2="2883.2" stroke="#ffffff" stroke-width="1.0" />
<text x="1333.0" y="2889.2" font-size="16" font-weight="400" fill="#333333" text-anchor="end" font-family="Times New Roman, Times, serif">1.00e+155</text>
<line x1="1349.0" y1="2723.0" x2="2269.0" y2="2723.0" stroke="#ffffff" stroke-width="1.0" />
<text x="1333.0" y="2729.0" font-size="16" font-weight="400" fill="#333333" text-anchor="end" font-family="Times New Roman, Times, serif">1.00e+206</text>
<line x1="1349.0" y1="2569.0" x2="2269.0" y2="2569.0" stroke="#ffffff" stroke-width="1.0" />
<text x="1333.0" y="2575.0" font-size="16" font-weight="400" fill="#333333" text-anchor="end" font-family="Times New Roman, Times, serif">1.00e+255</text>
<line x1="1349.0" y1="2569.0" x2="1349.0" y2="3364.0" stroke="#555555" stroke-width="1.6" />
<line x1="1349.0" y1="3364.0" x2="2269.0" y2="3364.0" stroke="#555555" stroke-width="1.6" />
<text x="1280.0" y="2966.5" font-size="21" font-weight="400" fill="#2b2b2b" text-anchor="middle" font-family="Times New Roman, Times, serif" transform="rotate(-90.0 1280.0 2966.5)">Value (log scale)</text>
<rect x="1414.4" y="2574.1" width="80.8" height="789.9" fill="#ef7f9a" opacity="0.88" />
<text x="1454.8" y="2969.0" font-size="17" font-weight="700" fill="#ffffff" text-anchor="middle" font-family="Times New Roman, Times, serif" transform="rotate(-90.0 1454.8 2969.0)">2.47e+253</text>
<rect x="1497.2" y="3362.5" width="80.8" height="1.5" fill="#c7aa4b" opacity="0.88" />
<rect x="1580.0" y="3356.1" width="80.8" height="7.9" fill="#6fa8dc" opacity="0.88" />
<rect x="1662.8" y="3362.6" width="80.8" height="1.4" fill="#8fbc6a" opacity="0.88" />
<text x="1537.6" y="3332.5" font-size="16" font-weight="700" fill="#2b2b2b" text-anchor="middle" font-family="Times New Roman, Times, serif">+100%</text>
<text x="1703.2" y="3332.6" font-size="16" font-weight="700" fill="#2b2b2b" text-anchor="middle" font-family="Times New Roman, Times, serif">+99%</text>
<text x="1579.0" y="3418.0" font-size="19" font-weight="400" fill="#2b2b2b" text-anchor="middle" font-family="Times New Roman, Times, serif"><tspan x="1579.0" dy="0.0">Mean Absolute</tspan><tspan x="1579.0" dy="23.0">Error</tspan></text>
<rect x="1874.4" y="2571.4" width="80.8" height="792.6" fill="#ef7f9a" opacity="0.88" />
<text x="1914.8" y="2967.7" font-size="17" font-weight="700" fill="#ffffff" text-anchor="middle" font-family="Times New Roman, Times, serif" transform="rotate(-90.0 1914.8 2967.7)">1.75e+254</text>
<rect x="1957.2" y="3361.2" width="80.8" height="2.8" fill="#c7aa4b" opacity="0.88" />
<rect x="2040.0" y="3353.8" width="80.8" height="10.2" fill="#6fa8dc" opacity="0.88" />
<rect x="2122.8" y="3361.3" width="80.8" height="2.7" fill="#8fbc6a" opacity="0.88" />
<text x="1997.6" y="3331.2" font-size="16" font-weight="700" fill="#2b2b2b" text-anchor="middle" font-family="Times New Roman, Times, serif">+100%</text>
<text x="2163.2" y="3331.3" font-size="16" font-weight="700" fill="#2b2b2b" text-anchor="middle" font-family="Times New Roman, Times, serif">+100%</text>
<text x="2039.0" y="3418.0" font-size="19" font-weight="400" fill="#2b2b2b" text-anchor="middle" font-family="Times New Roman, Times, serif"><tspan x="2039.0" dy="0.0">Root Mean</tspan><tspan x="2039.0" dy="23.0">Squared Error</tspan></text>
</svg>